PathFileType  4	(X/Y/Z) C:\Users\antoi\Documents\MyRepositories\mobilecap\ResultsAnalysis
DataRate	CameraRate	NumFrames	NumMarkers	Units	OrigDataRate	OrigDataStartFrame	OrigNumFrames
100.0	100.0	7	51	mm	100.0	52	137
Frame#	Time	r_knee			r_shank_antsup			r_ankle			r_calc			r_5meta			r_toe			L_knee			L_shank_antsup			L_ankle			L_calc			L_5meta			L_toe			r_sh2			r_sh3			r_sh4			L_sh2			L_sh3			r_thigh1			r_thigh2			r_thigh3			r_thigh4			r_thigh5			L_thigh1			L_thigh2			L_thigh3			L_thigh4			r.ASIS			r.PSIS			L.ASIS			L.PSIS			C7			R_Shoulder			L_Shoulder			R_Sternum			L_Sternum			R_humerus			R_elbow_med			R_elbow_lat			R_forearm			R_wrist_radius			R_wrist_ulna			L_humerus			L_elbow_med			L_elbow_lat			L_forearm			L_wrist_radius			L_wrist_ulna			R_HJC			L_HJC			R_HJC_reg			L_HJC_reg			
		X1	Y1	Z1	X2	Y2	Z2	X3	Y3	Z3	X4	Y4	Z4	X5	Y5	Z5	X6	Y6	Z6	X7	Y7	Z7	X8	Y8	Z8	X9	Y9	Z9	X10	Y10	Z10	X11	Y11	Z11	X12	Y12	Z12	X13	Y13	Z13	X14	Y14	Z14	X15	Y15	Z15	X16	Y16	Z16	X17	Y17	Z17	X18	Y18	Z18	X19	Y19	Z19	X20	Y20	Z20	X21	Y21	Z21	X22	Y22	Z22	X23	Y23	Z23	X24	Y24	Z24	X25	Y25	Z25	X26	Y26	Z26	X27	Y27	Z27	X28	Y28	Z28	X29	Y29	Z29	X30	Y30	Z30	X31	Y31	Z31	X32	Y32	Z32	X33	Y33	Z33	X34	Y34	Z34	X35	Y35	Z35	X36	Y36	Z36	X37	Y37	Z37	X38	Y38	Z38	X39	Y39	Z39	X40	Y40	Z40	X41	Y41	Z41	X42	Y42	Z42	X43	Y43	Z43	X44	Y44	Z44	X45	Y45	Z45	X46	Y46	Z46	X47	Y47	Z47	X48	Y48	Z48	X49	Y49	Z49	X50	Y50	Z50	X51	Y51	Z51	

52	0.51000000	277.65685	533.32330	-87.44996	294.30756	434.68043	-111.03153	155.13576	122.51982	-153.56472	61.80006	79.42247	-189.20911	267.36007	47.76038	-128.77935	318.07903	71.64587	-201.48810	528.09835	566.47819	-375.31315	553.61531	482.83153	-397.94373	614.67556	150.23919	-343.26389	564.54860	72.51758	-285.32362	747.04522	115.97040	-383.39946	794.33510	165.79028	-325.66490	258.87681	327.49069	-96.25203	241.18814	456.60218	-61.09842	186.99047	353.40565	-59.25707	466.47057	463.93102	-387.07293	506.70956	348.04914	-381.28638	406.72471	843.34994	-51.15305	393.20972	735.14665	-65.83643	335.55499	715.13905	-35.24533	297.75454	851.59880	-21.77501	284.21606	739.02964	-42.90118	477.13576	866.28404	-374.03619	540.39426	741.11980	-360.74564	385.21012	813.16712	-407.13349	445.75791	691.15053	-399.35541	418.82098	1071.58119	-75.86893	233.17194	1068.39040	-142.44228	407.61079	1072.73153	-328.01393	224.71776	1066.35152	-253.11335	328.52391	1626.51455	-220.84264	398.35053	1559.46776	-64.20638	317.53251	1544.77934	-389.30534	429.13915	1510.11387	-206.87385	413.88960	1505.89001	-262.00798	422.72067	1416.31502	16.39018	358.59893	1203.54537	25.55177	387.19094	1239.37416	100.63544	517.71683	1120.48755	109.43940	595.00825	1064.22693	90.09101	563.21573	1049.23297	121.13584	246.87055	1423.44247	-446.04040	155.67633	1220.20019	-341.12952	144.27770	1223.65274	-422.70062	152.08164	1151.43097	-449.70262	132.36437	971.42776	-441.60600	92.64910	983.56967	-448.27573	349.10131	948.28864	-96.72496	336.62863	954.40528	-303.22663	367.06968	986.70602	-105.98128	354.38274	983.64596	-272.04499	
53	0.52000000	285.44588	532.25975	-87.64531	300.64195	433.12001	-111.14383	156.01010	123.34069	-153.87223	62.26344	80.38702	-189.64727	267.51007	47.72009	-128.79337	318.50383	71.17850	-201.48466	540.57291	562.55726	-374.28586	569.40130	479.82015	-396.41517	647.58239	150.56516	-339.89806	601.30773	71.09316	-281.40907	782.09646	122.12010	-378.90976	826.49852	175.09690	-321.73486	263.21835	326.51805	-96.43236	247.67575	455.97020	-61.43656	191.65554	353.71760	-59.62834	483.34162	456.89935	-384.89355	529.23458	342.98747	-378.66648	417.73810	841.01843	-50.44630	403.18283	732.89239	-65.15679	345.05674	713.53760	-35.03545	308.44893	850.28395	-21.68728	293.98858	737.82036	-42.91443	490.24534	862.64201	-374.16074	552.79691	737.16176	-360.57079	398.20044	810.05124	-407.48753	458.06078	687.67430	-398.93621	431.97439	1069.19534	-76.05480	246.68471	1066.12095	-143.76218	422.19747	1070.29066	-328.49741	239.00068	1063.75853	-254.45996	342.26735	1623.98311	-220.93134	411.79381	1557.01918	-64.39355	331.84103	1542.37863	-389.66826	442.86135	1507.64150	-206.92206	427.74174	1503.35066	-262.15761	437.34215	1414.32597	16.11793	375.09091	1201.03122	26.19835	403.94698	1237.38519	101.03418	536.51273	1120.72209	108.29811	614.44772	1065.75998	87.87211	583.46306	1050.32816	119.50834	259.68417	1421.65293	-445.88780	166.10012	1220.44959	-339.03169	153.95319	1223.66319	-420.38848	160.17786	1151.28631	-447.17291	137.23524	971.68175	-437.87633	97.73087	984.36273	-444.35833	362.41355	945.93719	-97.32463	351.11348	951.91773	-303.89417	380.14030	984.59495	-106.30163	368.59630	981.04534	-272.59720	
54	0.53000000	293.73484	531.21397	-87.76685	307.24118	431.50175	-111.18633	157.02387	124.37452	-154.12170	62.82234	81.69565	-190.01295	267.68476	47.63703	-128.77957	318.98515	70.65459	-201.44819	552.91339	558.56922	-373.26797	584.53083	476.65502	-394.87387	678.29299	151.20002	-336.27575	635.68453	70.50971	-276.85575	814.39332	127.89000	-374.50151	856.18269	183.77502	-318.14373	267.81429	325.61454	-96.50211	254.54144	455.39540	-61.71927	196.61702	354.16500	-59.94982	499.64820	450.14593	-382.46394	550.62313	338.26005	-375.74340	428.94669	838.76450	-49.59945	413.31305	730.67499	-64.36051	354.79764	711.95884	-34.75267	319.21875	848.93741	-21.59645	303.99040	736.58529	-42.96592	503.87463	859.10727	-374.56768	565.65286	733.27950	-360.54396	411.57367	807.09219	-407.75443	470.62665	684.33771	-398.48081	445.21632	1066.78564	-76.20386	260.32679	1063.80325	-145.10983	436.95110	1067.72294	-328.91154	253.40797	1061.14329	-255.80755	356.03154	1621.46125	-221.03303	425.28892	1554.46831	-64.61573	346.05703	1539.95006	-390.04505	456.63867	1505.15047	-207.03484	441.59279	1500.84168	-262.41694	451.82716	1412.16327	15.80026	391.26010	1198.42078	26.74580	420.33826	1235.27391	101.34991	554.79762	1120.77483	107.12632	633.31931	1067.08160	85.65293	603.07965	1051.25142	117.84664	272.49940	1419.80259	-445.76375	176.74642	1220.52877	-337.08189	163.89687	1223.55261	-418.23099	168.67965	1151.05163	-444.79625	142.74469	971.84741	-434.35573	103.48430	985.01891	-440.67840	375.79283	943.55701	-97.86160	365.72959	949.33933	-304.49646	393.35851	982.38412	-106.59978	382.95188	978.38286	-273.10221	
55	0.54000000	302.51448	530.22641	-87.79275	314.03470	429.83098	-111.12912	158.19818	125.66871	-154.28897	63.50081	83.42844	-190.27629	267.88758	47.51028	-128.72256	319.53432	70.07436	-201.36519	565.32374	554.64629	-372.22995	599.18709	473.43948	-393.29886	706.57291	151.81156	-332.45125	667.25896	70.40350	-271.81506	843.76445	132.86411	-370.17312	883.25086	191.39353	-314.82894	272.67014	324.83866	-96.40222	261.78355	454.94009	-61.93187	201.87268	354.81965	-60.20896	515.48566	443.87215	-379.85802	570.81040	333.94272	-372.61275	440.36481	836.62856	-48.63935	423.65843	728.55774	-63.45218	364.78696	710.45768	-34.42812	330.09717	847.63044	-21.55660	314.23601	735.39071	-43.11186	518.00035	855.72763	-375.19387	578.94865	729.52786	-360.63306	425.28063	804.30492	-407.80044	483.45861	681.17814	-397.98990	458.57441	1064.42185	-76.26002	274.09824	1061.44048	-146.49846	451.86294	1065.08642	-329.20886	267.91684	1058.53681	-257.16727	369.82593	1618.99558	-221.16121	438.83857	1551.87215	-64.86725	360.15343	1537.55238	-390.43649	470.47182	1502.69454	-207.21997	455.45038	1498.39975	-262.77473	466.16393	1409.87458	15.44354	407.08506	1195.74823	27.17461	436.33621	1233.07272	101.57067	572.53413	1120.66033	105.93421	651.61088	1068.20620	83.46641	622.02882	1052.00821	116.16931	285.31500	1417.93558	-445.65699	187.66399	1220.44394	-335.27851	174.15788	1223.32624	-416.23668	177.62845	1150.71449	-442.58660	148.94501	971.91555	-431.06765	109.93211	985.53207	-437.25070	389.25915	941.19363	-98.31641	380.51294	946.71643	-305.01445	406.78814	980.08618	-106.83377	397.47836	975.71291	-273.52360	
56	0.55000000	311.75719	529.31929	-87.71509	320.96396	428.10032	-110.96273	159.56229	127.26395	-154.34100	64.33414	85.65054	-190.40732	268.12890	47.34433	-128.60746	320.16242	69.44162	-201.22690	578.01430	550.92357	-371.11985	613.58317	470.27935	-391.65539	732.18757	152.06215	-328.51489	695.59842	70.35511	-266.54599	870.06433	136.65035	-365.89817	907.58432	197.51507	-311.65156	277.81197	324.23198	-96.10161	269.43116	454.64869	-62.06301	207.45907	355.73502	-60.38395	530.96842	438.27867	-377.14196	589.74953	330.09104	-369.37746	452.00908	834.63651	-47.62157	434.29250	726.58845	-62.45807	375.05049	709.07619	-34.09628	341.16066	846.42976	-21.64771	324.75815	734.29120	-43.39152	532.50852	852.53655	-375.95931	592.62791	725.96843	-360.80745	439.23978	801.66573	-407.57684	496.56139	678.20215	-397.46553	472.08439	1062.16336	-76.20341	288.00537	1059.05496	-147.92697	466.90757	1062.44899	-329.37773	282.51445	1055.97053	-258.54054	383.65476	1616.62812	-221.32878	452.44623	1549.29492	-65.14226	374.12749	1535.24024	-390.84343	484.36307	1500.32147	-207.47995	469.32801	1496.05927	-263.21070	480.35174	1407.51733	15.05868	422.54876	1193.05898	27.46386	451.91356	1230.82404	101.68462	589.69064	1120.39828	104.72809	669.30028	1069.14523	81.34150	640.28324	1052.60049	114.49320	298.14403	1416.09927	-445.56062	198.89926	1220.21000	-333.62177	184.78198	1222.99281	-414.41222	187.06182	1150.27333	-440.55685	155.90024	971.88698	-428.03913	117.11090	985.90389	-434.08739	402.84521	938.89214	-98.69015	395.47837	944.10312	-305.44766	420.46861	977.74156	-106.98353	412.18620	973.08958	-273.84713	
57	0.56000000	321.44971	528.49564	-87.53848	328.01977	426.29843	-110.69988	161.15298	129.19057	-154.24012	65.36377	88.41254	-190.38056	268.42549	47.14827	-128.42462	320.88001	68.76610	-201.03025	591.17349	547.52260	-369.88063	627.91527	467.25586	-389.90608	754.90232	151.66497	-324.56715	720.31032	69.96085	-261.34908	893.17204	138.91823	-361.64226	929.09262	201.73494	-308.43450	283.28672	323.81114	-95.60458	277.55140	454.53700	-62.10516	213.45392	356.93395	-60.44738	546.19377	433.52556	-374.38302	607.40719	326.72135	-366.14039	463.90324	832.80030	-46.61745	445.28890	724.79650	-61.42232	385.64100	707.83434	-33.78980	352.51117	845.38100	-21.93746	335.61290	733.31621	-43.81294	547.24169	849.56592	-376.78554	606.63743	722.68153	-361.03138	453.38045	799.12713	-407.12666	509.96535	675.40043	-396.88975	485.77977	1060.05328	-76.05183	302.06320	1056.69345	-149.37956	482.05849	1059.88119	-329.44471	297.20497	1053.47783	-259.91790	397.51741	1614.39603	-221.54501	466.11825	1546.80163	-65.43854	387.99939	1533.06053	-391.26647	498.31399	1498.07182	-207.81275	483.24186	1493.85464	-263.70387	494.39864	1405.15277	14.65844	437.63393	1190.40852	27.59358	467.04545	1228.57680	101.68127	606.23947	1120.00978	103.51143	686.35225	1069.90320	79.29949	657.81900	1053.02715	112.83190	311.00852	1414.34124	-445.47320	210.49566	1219.84749	-332.11576	195.80771	1222.56377	-412.76283	197.01796	1149.73997	-438.71748	163.67141	971.76646	-425.29216	125.06806	986.13985	-431.19932	416.58941	936.69552	-99.00224	410.62173	941.55735	-305.81297	434.40778	975.41929	-107.05213	427.06724	970.56173	-274.08204	
58	0.57000000	331.62519	527.74362	-87.27300	335.28385	424.43040	-110.36323	163.01205	131.46811	-153.95257	66.63253	91.75620	-190.18255	268.79684	46.93403	-128.17423	321.69451	68.06444	-200.77409	604.93186	544.52891	-368.46851	642.31866	464.40287	-388.02339	774.51584	150.43234	-320.68987	741.11217	68.92533	-256.48973	913.01884	139.43559	-357.37272	947.74035	203.73241	-305.00368	289.16017	323.57011	-94.94361	286.24335	454.59071	-62.05292	219.96047	358.40666	-60.37368	561.21131	429.69448	-371.66441	623.76408	323.79846	-362.99802	476.08202	831.12201	-45.69347	456.70857	723.19388	-60.39470	396.63795	706.72874	-33.53178	364.24712	844.49557	-22.44678	346.87400	732.46496	-44.34765	562.05902	846.84922	-377.61213	620.95519	719.75698	-361.25868	467.67351	796.63979	-406.55831	523.72662	672.76159	-396.21535	499.68573	1058.11705	-75.85163	316.29651	1054.42351	-150.82924	497.30593	1057.44890	-329.46593	312.01193	1051.09472	-261.28017	411.41316	1612.33083	-221.81570	479.86387	1544.45157	-65.75929	401.80319	1531.05116	-391.70646	512.32495	1495.98021	-208.21345	497.20812	1491.81736	-264.23947	508.31695	1402.84112	14.25437	452.31912	1187.85949	27.54561	481.71219	1226.38117	101.55098	622.15518	1119.51397	102.28609	702.72430	1070.47707	77.35309	674.61142	1053.28536	111.19556	323.93339	1412.70573	-445.39927	222.49292	1219.37872	-330.76747	207.26271	1222.05383	-411.29170	207.53415	1149.13600	-437.07564	172.30684	971.55888	-422.83867	133.85428	986.24529	-428.59705	430.53040	934.64285	-99.28349	425.92942	939.13618	-306.13889	448.58835	973.20756	-107.06140	442.10274	968.16991	-274.25650	
